<svg width="10" height="9" viewBox="0 0 10 9" xmlns="http://www.w3.org/2000/svg">
<path d="M4.50147 8.79693C2.02018 8.78515 0.0179224 6.85945 0.000116875 4.43101C-0.0176886 1.97901 2.00123 0.00393353 4.50204 5.82648e-06C6.96782 -0.00392187 8.99937 1.97844 9.00224 4.39061C9.00454 6.81905 6.99022 8.79132 4.50147 8.79693ZM4.09538 3.20052C4.09538 3.59666 4.09653 3.99279 4.09481 4.38893C4.09424 4.49329 4.12295 4.58756 4.19762 4.66106C4.61634 5.07291 5.03563 5.48363 5.45722 5.89155C5.55716 5.98806 5.68582 6.015 5.8208 5.98133C6.13498 5.9039 6.23779 5.54087 6.00747 5.31194C5.66285 4.96911 5.31363 4.63076 4.96441 4.29298C4.92018 4.24978 4.90238 4.20713 4.90238 4.14653C4.90468 3.43843 4.9041 2.73032 4.90353 2.02221C4.90353 1.77981 4.73409 1.607 4.49974 1.60643C4.2654 1.60643 4.09539 1.77925 4.09481 2.02109C4.09481 2.41442 4.09538 2.80775 4.09538 3.20052Z"/>
</svg>