<svg width="18" height="14" viewBox="0 0 18 14" xmlns="http://www.w3.org/2000/svg">
<path d="M18 3.93632C18 6.55219 18 9.16807 18 11.7829C17.973 11.787 17.9699 11.8075 17.9626 11.8291C17.6826 12.6621 17.1611 13.0334 16.2753 13.0334C11.7216 13.0334 7.16781 13.0334 2.61301 13.0334C2.53495 13.0334 2.45688 13.0344 2.37882 13.0314C1.55133 12.9985 0.872692 12.3143 0.872692 11.5029C0.870611 9.01932 0.871651 6.5368 0.872692 4.05326C0.872692 4.01428 0.847711 3.96607 0.899754 3.93427C3.23544 5.46891 5.57009 7.00356 7.90474 8.53718C8.90917 9.19782 9.95523 9.20192 10.9586 8.54334C13.2402 7.04562 15.5207 5.54482 17.8033 4.04711C17.8658 4.0071 17.9178 3.94452 18 3.93632Z"/>
<path d="M18.0001 2.22215C17.9429 2.24164 17.9637 2.29703 17.9522 2.33499C17.8429 2.6889 17.64 2.97408 17.3267 3.18027C14.9879 4.718 12.6511 6.25983 10.3071 7.78934C9.73984 8.15967 9.1351 8.1607 8.56679 7.78934C6.21653 6.25572 3.87252 4.71287 1.52954 3.16899C0.99454 2.8161 0.761387 2.18829 0.912311 1.56664C1.05595 0.974732 1.57534 0.504901 2.18216 0.40642C2.31539 0.384878 2.44758 0.378723 2.58081 0.378723C7.14498 0.378723 11.7102 0.378723 16.2744 0.378723C17.1872 0.378723 17.7264 0.781876 17.973 1.64768C17.9751 1.65486 17.9897 1.65794 17.9991 1.66307C18.0001 1.84874 18.0001 2.03544 18.0001 2.22215Z"/>
</svg>
