<svg width="18" height="18" viewBox="0 0 18 18" xmlns="http://www.w3.org/2000/svg">
<path d="M3.80155 0C3.98989 0.0807553 4.19767 0.102222 4.38192 0.204444C4.54671 0.296443 4.70537 0.394576 4.83741 0.527465C5.64808 1.33297 6.45875 2.1395 7.2643 2.95115C7.86514 3.55732 7.97056 4.38634 7.54373 5.08452C7.35744 5.38914 7.09643 5.60891 6.75968 5.72954C6.25301 5.91149 5.85791 6.21611 5.64501 6.72415C5.51194 7.04104 5.4884 7.36304 5.57745 7.69935C5.82516 8.63877 6.34615 9.42077 6.97872 10.1353C7.69522 10.9439 8.50999 11.6318 9.48852 12.1082C9.91024 12.3136 10.3442 12.4874 10.8325 12.4148C11.4272 12.328 11.8806 12.0387 12.1488 11.4897C12.2767 11.2291 12.3607 10.9469 12.5674 10.7272C13.1867 10.0699 14.2092 10.0034 14.8981 10.5912C15.1202 10.7813 15.3208 10.997 15.5286 11.2035C16.1684 11.8404 16.7958 12.4905 17.4478 13.114C18.2206 13.8531 18.1459 15.0164 17.4499 15.7166C16.934 16.2369 16.4079 16.748 15.8961 17.2724C15.4232 17.757 14.8377 17.9655 14.1785 17.9951C13.243 18.0381 12.3607 17.7917 11.5019 17.4544C10.2153 16.9494 9.04225 16.241 7.93269 15.4243C5.78319 13.8408 3.92131 11.9712 2.37776 9.79286C1.52001 8.57948 0.792246 7.29149 0.34085 5.86447C0.187314 5.37994 0.0726737 4.88621 0.0348015 4.37714C0.0327543 4.35158 0.0266129 4.33114 0 4.32399C0 4.11341 0 3.90181 0 3.69123C0.0634615 3.6667 0.0317308 3.6115 0.0368486 3.57061C0.103381 3.06359 0.249752 2.58519 0.61312 2.21106C1.18735 1.61919 1.77488 1.04062 2.36241 0.461021C2.56405 0.261688 2.80664 0.123688 3.0871 0.0572442C3.12497 0.0490665 3.18536 0.0592887 3.20378 0C3.40338 0 3.60195 0 3.80155 0Z"/>
</svg>
