<svg width="32" height="30" viewBox="0 0 32 30" xmlns="http://www.w3.org/2000/svg">
<path d="M20.55 29.1813C19.8214 29.1701 19.3207 28.9003 18.9357 28.4037C18.1604 27.4021 17.1323 26.8452 15.8754 26.7969C14.4743 26.7435 13.3287 27.3029 12.4784 28.427C12.2747 28.696 12.0537 28.9408 11.7524 29.0994C11.2396 29.3692 10.7044 29.4002 10.1649 29.2011C8.53071 28.5977 7.04071 27.7409 5.70005 26.6306C4.97405 26.0298 4.80571 25.2143 5.19332 24.2816C6.10838 22.0817 5.01462 19.6319 2.77617 18.8837C2.55431 18.8095 2.32209 18.7492 2.08987 18.7225C0.907197 18.5871 0.282192 17.9475 0.13112 16.7536C-0.076927 15.1106 -0.0398065 13.4797 0.259747 11.8514C0.422904 10.9644 1.10661 10.3067 2.00268 10.2127C4.07366 9.99719 5.64135 8.24989 5.61804 6.17589C5.61286 5.69057 5.50927 5.21991 5.3418 4.76391C4.99908 3.83294 5.23044 3.03471 6.01169 2.42355C7.24358 1.45895 8.5989 0.710726 10.0604 0.153004C10.934 -0.179732 11.7455 0.0349086 12.3472 0.751241C14.0556 2.78214 16.9519 2.78042 18.6603 0.748655C19.262 0.0331846 20.0734 -0.17887 20.9471 0.153866C22.5018 0.746069 23.9288 1.56067 25.222 2.60802C26.0723 3.29676 26.2743 3.99499 25.9195 5.0251C25.0942 7.41891 26.6041 9.93857 29.1058 10.342C30.0545 10.4946 30.6329 11.1178 30.8021 12.1384C31.087 13.8607 31.0697 15.577 30.7426 17.2915C30.5915 18.0811 29.9337 18.7251 29.1369 18.844C26.914 19.1742 25.493 20.8766 25.5802 23.1153C25.5966 23.5351 25.7089 23.9377 25.8582 24.3307C26.2078 25.2522 25.9946 26.0289 25.2315 26.6556C24.0298 27.6426 22.7047 28.4218 21.2699 29.0184C21.0101 29.1278 20.7408 29.1959 20.55 29.1813ZM20.6691 14.659C20.689 11.8729 18.3633 9.5248 15.5603 9.49894C12.7219 9.47308 10.3557 11.7859 10.3358 14.6064C10.3159 17.445 12.6226 19.7888 15.461 19.8129C18.3081 19.8371 20.6492 17.52 20.6691 14.659Z"/>
</svg>
