<svg width="18" height="18" viewBox="0 0 18 18" xmlns="http://www.w3.org/2000/svg">
<path d="M8.5601 0C8.82851 0 9.09793 0 9.36634 0C9.3785 0.0106906 9.38964 0.0291561 9.40281 0.030128C10.1655 0.0991307 10.8208 0.401382 11.3637 0.90967C12.2388 1.7309 12.5822 2.72609 12.3766 3.89234C12.3128 4.25193 12.172 4.58237 11.9957 4.92446C12.0747 4.92446 12.1335 4.92446 12.1922 4.92446C12.9063 4.92446 13.6204 4.92446 14.3355 4.92446C14.5127 4.92446 14.69 4.93904 14.8601 4.97986C15.6704 5.17715 16.1698 5.67378 16.3268 6.45905C16.4848 7.25015 16.6134 8.04611 16.7522 8.84013C16.9294 9.85282 17.1036 10.8665 17.2799 11.8792C17.4683 12.9609 17.6597 14.0425 17.845 15.1252C17.9068 15.4877 18.0162 15.8473 17.998 16.2166C17.9494 17.2449 17.1148 17.999 16.0411 17.999C11.3465 18 6.65187 17.999 1.95622 18C1.81544 18 1.67769 17.9893 1.53892 17.966C0.594934 17.8017 -0.119136 16.8775 0.0165881 15.9717C0.106733 15.3711 0.214097 14.7724 0.317409 14.1737C0.493647 13.1552 0.673937 12.1367 0.851189 11.1182C1.02743 10.1055 1.19961 9.09184 1.38092 8.07915C1.48929 7.47562 1.56323 6.86529 1.71415 6.26953C1.89039 5.57562 2.57711 5.02457 3.31853 4.95168C3.87358 4.89725 4.42863 4.93613 4.98368 4.92544C5.31691 4.91863 5.65014 4.92446 6.00465 4.92446C5.76865 4.49393 5.62887 4.06047 5.57722 3.59689C5.4182 2.16824 6.35408 0.715296 7.765 0.213811C8.02531 0.121484 8.2998 0.0864964 8.5601 0ZM10.4288 3.30436C10.4339 2.56282 9.79276 1.93888 9.01994 1.93111C8.22383 1.92333 7.56851 2.54241 7.57053 3.30047C7.57256 4.04103 8.2056 4.67178 8.98855 4.66789C9.78972 4.664 10.3974 4.09449 10.4288 3.30436Z"/>
</svg>
