<svg width="19" height="23" viewBox="0 0 19 23" xmlns="http://www.w3.org/2000/svg">
<path d="M9.47144 -3.21128e-06C5.85184 0.0216162 2.87992 2.88774 2.94707 6.34016C3.02585 10.3856 6.0517 12.6124 9.61155 12.6453C13.1101 12.6777 16.017 9.73596 15.9979 6.31699C15.9784 2.77089 13.0937 -0.0211079 9.47144 -3.21128e-06Z" />
<path d="M0.0750729 19.9234C-0.267536 17.1988 0.52554 15.8085 3.19927 15.1336C7.44963 14.0604 11.7576 14.0259 15.9958 15.216C18.6357 15.9572 19.5155 17.747 18.7145 20.2564C17.7147 21.6627 16.1973 22.2274 14.581 22.5403C11.5535 23.1261 8.48961 23.1127 5.44579 22.7241C3.32986 22.4533 1.21393 22.0333 0.0750729 19.9234Z" />
<path d="M9.47145 2.63733e-06C13.0937 -0.0216168 15.9789 2.77038 15.9979 6.317C16.0164 9.73596 13.1096 12.6777 9.61156 12.6453C6.0517 12.6124 3.02585 10.3856 2.94707 6.34016C2.87992 2.88774 5.85185 0.0216221 9.47145 2.63733e-06Z" />
</svg>
