<svg width="24" height="24" viewBox="0 0 24 24" xmlns="http://www.w3.org/2000/svg">
<path d="M14.7497 0.305446C5.99227 -1.63811 -1.63813 5.99229 0.30543 14.7497C1.29451 19.2062 4.79428 22.7055 9.25035 23.6946C18.0073 25.6382 25.6382 18.0073 23.6946 9.25037C22.7055 4.79429 19.2057 1.29452 14.7497 0.305446ZM13.8457 6.46111L18.8366 4.72056C18.8371 4.72056 18.838 4.72056 18.8384 4.72101C20.5517 5.94222 21.513 7.90991 21.7315 10.2053L13.4829 7.91082C12.8949 7.74741 13.1566 6.70144 13.8457 6.46111ZM7.19027 3.24718C8.88121 1.99548 11.0496 1.6887 13.3004 2.19029L8.56943 9.32593C8.23215 9.8348 7.31817 9.26266 7.3027 8.53303L7.18982 3.24855C7.18982 3.24809 7.19027 3.24764 7.19027 3.24718ZM2.19073 13.8708C2.19027 13.8703 2.18982 13.8698 2.18936 13.8694C1.52118 11.8744 1.89988 9.71737 3.07238 7.73193L8.39692 14.4365C8.77653 14.9145 7.94994 15.6072 7.25126 15.3965L2.19073 13.8708ZM13.7624 17.5658L10.7479 21.9072C10.7474 21.9076 10.7469 21.9076 10.746 21.9081C8.64225 21.9272 6.7078 20.9003 5.18162 19.1716L13.2035 16.1798C13.7756 15.9668 14.1789 16.9663 13.7624 17.5658ZM12.0847 14.5867C10.5881 14.6345 9.36506 13.4115 9.41285 11.9149C9.45609 10.5599 10.5599 9.4561 11.9149 9.41286C13.4115 9.36507 14.6345 10.5881 14.5867 12.0847C14.5435 13.4397 13.4397 14.5435 12.0847 14.5867ZM16.7142 20.7005L16.3473 12.147C16.3214 11.5371 17.3969 11.4625 17.8384 12.0437L21.036 16.2526C21.036 16.2531 21.036 16.254 21.0364 16.2545C20.4037 18.2608 18.8298 19.7834 16.7142 20.7005Z"/>
</svg>
