<svg width="28" height="25" viewBox="0 0 28 25" xmlns="http://www.w3.org/2000/svg">
<path d="M15.3358 15.2464H9.95085C9.55221 15.2464 9.19378 15.4539 8.99446 15.8032C8.79514 16.1509 8.79514 16.5677 8.99446 16.9153L11.6861 21.6132C11.8854 21.9608 12.2438 22.1701 12.6425 22.1701C13.0411 22.1701 13.3996 21.9625 13.5989 21.6132L16.2905 16.9153C16.4898 16.5677 16.4898 16.1509 16.2905 15.8032C16.0912 15.4539 15.7344 15.2464 15.3358 15.2464Z"/>
<path d="M26.6634 2.70165H20.0256V2.39453C20.0256 1.07155 18.962 0 17.6489 0H7.63773C6.32458 0 5.25932 1.07155 5.25932 2.39453V2.70165H1.33828C0.601304 2.70165 0 3.30915 0 4.04995V5.60243C0 6.34323 0.601304 6.95073 1.33828 6.95073H5.25932V12.4823C5.25932 13.8053 6.3229 14.8768 7.63606 14.8768H17.6472C18.9603 14.8768 20.0239 13.8053 20.0239 12.4823V6.94904H26.6617C27.397 6.94904 28 6.34323 28 5.60074V4.04995C28 3.30915 27.3987 2.70165 26.6634 2.70165Z"/>
<path d="M12.7647 23.1691C12.8317 22.9615 12.8954 22.7658 12.877 22.5717C12.8686 22.4857 12.7597 22.4198 12.6324 22.4249C12.5051 22.43 12.4096 22.5059 12.418 22.592C12.4314 22.7405 12.3778 22.9075 12.3142 23.0999C12.1584 23.5808 11.9624 24.1799 12.691 24.9291C12.7346 24.9747 12.8083 25 12.882 25C12.9255 25 12.9708 24.9916 13.0093 24.973C13.1148 24.9241 13.1433 24.8279 13.0729 24.7553C12.4565 24.1175 12.6207 23.6129 12.7647 23.1691Z"/>
</svg>
